<svg width="18" height="20" viewBox="0 0 18 20" fill="none" xmlns="http://www.w3.org/2000/svg">
<path fill-rule="evenodd" clip-rule="evenodd" d="M0 2.85714C0 2.09938 0.301019 1.37266 0.836838 0.836838C1.37266 0.30102 2.09938 0 2.85714 0H14.2857C15.0435 0 15.7702 0.30102 16.306 0.836838C16.8418 1.37266 17.1429 2.09938 17.1429 2.85714V17.1429C17.1429 17.9006 16.8418 18.6273 16.306 19.1632C15.7702 19.699 15.0435 20 14.2857 20H2.85714C2.09938 20 1.37266 19.699 0.836838 19.1632C0.301019 18.6273 0 17.9006 0 17.1429V2.85714ZM8.57143 12.8571C9.13424 12.8571 9.69153 12.7463 10.2115 12.5309C10.7315 12.3155 11.2039 11.9999 11.6019 11.6019C11.9999 11.2039 12.3155 10.7315 12.5309 10.2115C12.7463 9.69153 12.8571 9.13424 12.8571 8.57143C12.8571 8.00862 12.7463 7.45132 12.5309 6.93136C12.3155 6.41139 11.9999 5.93894 11.6019 5.54097C11.2039 5.14301 10.7315 4.82732 10.2115 4.61195C9.69153 4.39657 9.13424 4.28571 8.57143 4.28571C7.43479 4.28571 6.3447 4.73724 5.54097 5.54097C4.73724 6.3447 4.28571 7.43479 4.28571 8.57143C4.28571 9.70807 4.73724 10.7982 5.54097 11.6019C6.3447 12.4056 7.43479 12.8571 8.57143 12.8571ZM15.7143 16.7929C14.4943 15.4643 12.3186 14.2857 8.57143 14.2857C4.82429 14.2857 2.64857 15.4657 1.42857 16.7929V17.1429C1.42857 17.5217 1.57908 17.8851 1.84699 18.153C2.1149 18.4209 2.47826 18.5714 2.85714 18.5714H14.2857C14.6646 18.5714 15.028 18.4209 15.2959 18.153C15.5638 17.8851 15.7143 17.5217 15.7143 17.1429V16.7929Z" fill="#226ED8"/>
</svg>
