<svg width="10" height="15" viewBox="0 0 10 15" fill="none" xmlns="http://www.w3.org/2000/svg">
<path d="M8.26953 1.27832C7.39062 0.507813 6.23047 0.0859375 5 0.0859375C3.76953 0.0859375 2.60937 0.510743 1.73047 1.27832C0.816406 2.07813 0.3125 3.15332 0.3125 4.30469V4.52734C0.3125 4.65625 0.417969 4.76172 0.546875 4.76172H1.95312C2.08203 4.76172 2.1875 4.65625 2.1875 4.52734V4.30469C2.1875 3.0127 3.4502 1.96094 5 1.96094C6.5498 1.96094 7.8125 3.0127 7.8125 4.30469C7.8125 5.21582 7.16797 6.05078 6.16895 6.43457C5.54785 6.67188 5.02051 7.08789 4.64258 7.63281C4.25879 8.18945 4.05957 8.85742 4.05957 9.53418V10.1641C4.05957 10.293 4.16504 10.3984 4.29395 10.3984H5.7002C5.8291 10.3984 5.93457 10.293 5.93457 10.1641V9.49902C5.93609 9.21461 6.02327 8.93726 6.18475 8.70313C6.34624 8.46901 6.57452 8.28898 6.83984 8.18652C8.56836 7.52148 9.68457 5.99805 9.68457 4.30469C9.6875 3.15332 9.18359 2.07813 8.26953 1.27832ZM3.82812 13.4453C3.82812 13.7561 3.95159 14.0542 4.17136 14.274C4.39113 14.4937 4.6892 14.6172 5 14.6172C5.3108 14.6172 5.60887 14.4937 5.82864 14.274C6.04841 14.0542 6.17188 13.7561 6.17188 13.4453C6.17188 13.1345 6.04841 12.8364 5.82864 12.6167C5.60887 12.3969 5.3108 12.2734 5 12.2734C4.6892 12.2734 4.39113 12.3969 4.17136 12.6167C3.95159 12.8364 3.82812 13.1345 3.82812 13.4453Z" fill="#FDFDFD"/>
</svg>
