<svg width="22" height="20" viewBox="0 0 22 20" fill="none" xmlns="http://www.w3.org/2000/svg">
<path d="M20.3385 0.0633543L6.5383 4.99106V12.6191L7.35341 12.91L6.1253 15.3663C5.98542 15.6455 5.90723 15.9515 5.89601 16.2637C5.8848 16.5758 5.94082 16.8866 6.0603 17.1752C6.17977 17.4638 6.3599 17.7233 6.58846 17.9361C6.81703 18.1489 7.08868 18.3101 7.38501 18.4087L11.8354 19.8918C12.3333 20.0542 12.8727 20.0332 13.3565 19.8328C13.8402 19.6324 14.2364 19.2657 14.4736 18.7989L15.8935 15.9591L20.3385 17.5468C20.5029 17.6054 20.6789 17.6237 20.8518 17.6001C21.0247 17.5766 21.1895 17.5118 21.3321 17.4113C21.4748 17.3108 21.5913 17.1775 21.6717 17.0227C21.7521 16.8678 21.7942 16.6959 21.7943 16.5214V1.08878C21.7942 0.914264 21.7521 0.742337 21.6717 0.587464C21.5913 0.43259 21.4748 0.2993 21.3321 0.198807C21.1895 0.0983142 21.0247 0.0335578 20.8518 0.00998619C20.6789 -0.0135854 20.5029 0.00471721 20.3385 0.0633543ZM12.5241 17.8247L8.07481 16.3416L9.42061 13.6489L13.8252 15.2224L12.5241 17.8247ZM2.17943 12.6191H4.35887V4.99106H2.17943C0.977476 4.99106 0 5.96853 0 7.17049V10.4396C0 11.6416 0.977476 12.6191 2.17943 12.6191Z" fill="#226ED8"/>
</svg>
