<svg width="27" height="20" viewBox="0 0 27 20" fill="none" xmlns="http://www.w3.org/2000/svg">
<path fill-rule="evenodd" clip-rule="evenodd" d="M11.6667 20C11.6667 20 10 20 10 18.3333C10 16.6667 11.6667 11.6667 18.3333 11.6667C25 11.6667 26.6667 16.6667 26.6667 18.3333C26.6667 20 25 20 25 20H11.6667ZM18.3333 10C19.6594 10 20.9312 9.47322 21.8689 8.53553C22.8065 7.59785 23.3333 6.32608 23.3333 5C23.3333 3.67392 22.8065 2.40215 21.8689 1.46447C20.9312 0.526784 19.6594 0 18.3333 0C17.0072 0 15.7355 0.526784 14.7978 1.46447C13.8601 2.40215 13.3333 3.67392 13.3333 5C13.3333 6.32608 13.8601 7.59785 14.7978 8.53553C15.7355 9.47322 17.0072 10 18.3333 10ZM8.69333 20C8.44626 19.4797 8.32304 18.9092 8.33333 18.3333C8.33333 16.075 9.46667 13.75 11.56 12.1333C10.5152 11.8114 9.42658 11.654 8.33333 11.6667C1.66667 11.6667 0 16.6667 0 18.3333C0 20 1.66667 20 1.66667 20H8.69333ZM7.5 10C8.60507 10 9.66488 9.56101 10.4463 8.77961C11.2277 7.99821 11.6667 6.9384 11.6667 5.83333C11.6667 4.72826 11.2277 3.66846 10.4463 2.88705C9.66488 2.10565 8.60507 1.66667 7.5 1.66667C6.39493 1.66667 5.33512 2.10565 4.55372 2.88705C3.77232 3.66846 3.33333 4.72826 3.33333 5.83333C3.33333 6.9384 3.77232 7.99821 4.55372 8.77961C5.33512 9.56101 6.39493 10 7.5 10Z" fill="#226ED8"/>
</svg>
