<svg width="20" height="36" viewBox="0 0 20 36" fill="none" xmlns="http://www.w3.org/2000/svg">
<path d="M15.5 18L1.21804 3.15999C0.960691 2.89913 0.816406 2.54743 0.816406 2.18099C0.816406 1.81455 0.960691 1.46285 1.21804 1.20199C1.34459 1.07349 1.49543 0.971444 1.66178 0.90179C1.82814 0.832135 2.00669 0.796265 2.18704 0.796265C2.36739 0.796265 2.54594 0.832135 2.71229 0.90179C2.87865 0.971444 3.02949 1.07349 3.15604 1.20199L18.816 17.018C19.0734 17.2789 19.2177 17.6306 19.2177 17.997C19.2177 18.3634 19.0734 18.7151 18.816 18.976L3.15604 34.792C3.02949 34.9205 2.87865 35.0225 2.71229 35.0922C2.54594 35.1618 2.36739 35.1977 2.18704 35.1977C2.00669 35.1977 1.82814 35.1618 1.66178 35.0922C1.49543 35.0225 1.34459 34.9205 1.21804 34.792C0.960691 34.5311 0.816406 34.1794 0.816406 33.813C0.816406 33.4466 0.960691 33.0949 1.21804 32.834L15.5 18Z" fill="white"/>
</svg>
