<svg width="20" height="36" viewBox="0 0 20 36" fill="none" xmlns="http://www.w3.org/2000/svg">
<path d="M18.782 32.8359C19.0393 33.0968 19.1836 33.4485 19.1836 33.8149C19.1836 34.1814 19.0393 34.5331 18.782 34.7939C18.6554 34.9224 18.5046 35.0245 18.3382 35.0941C18.1719 35.1638 17.9933 35.1997 17.813 35.1997C17.6326 35.1997 17.4541 35.1638 17.2877 35.0941C17.1214 35.0245 16.9705 34.9224 16.844 34.7939L1.18398 18.9779C0.926633 18.7171 0.782349 18.3654 0.782349 17.9989C0.782349 17.6325 0.926633 17.2808 1.18398 17.0199L16.844 1.20394C16.9705 1.07544 17.1214 0.973398 17.2877 0.903743C17.4541 0.834089 17.6326 0.798218 17.813 0.798218C17.9933 0.798218 18.1719 0.834089 18.3382 0.903743C18.5046 0.973398 18.6554 1.07544 18.782 1.20394C19.0393 1.46481 19.1836 1.81651 19.1836 2.18294C19.1836 2.54938 19.0393 2.90108 18.782 3.16194L4.49998 17.9999L18.782 32.8359Z" fill="white"/>
</svg>
