<svg width="19" height="19" viewBox="0 0 19 19" fill="none" xmlns="http://www.w3.org/2000/svg">
<path d="M10.5266 5.31587C12.7402 5.31587 13.6844 6.26008 13.6844 8.47375H15.7897C15.7897 5.07903 13.9213 3.21062 10.5266 3.21062V5.31587ZM14.1286 11.0453C13.9264 10.8615 13.6606 10.7634 13.3874 10.7719C13.1142 10.7803 12.855 10.8946 12.6644 11.0906L10.1455 13.6811C9.53919 13.5653 8.32025 13.1853 7.06552 11.9337C5.81079 10.6779 5.43079 9.45585 5.31816 8.85375L7.90657 6.33376C8.10279 6.14337 8.21724 5.8841 8.22569 5.61083C8.23413 5.33755 8.13592 5.07171 7.95183 4.86956L4.06238 0.59274C3.87822 0.389959 3.62226 0.266957 3.34886 0.249857C3.07547 0.232758 2.80617 0.322908 2.59818 0.501162L0.31398 2.4601C0.131992 2.64275 0.0233699 2.88583 0.00871781 3.14325C-0.00707158 3.40641 -0.308122 9.64006 4.52554 14.4758C8.74236 18.6916 14.0244 19 15.4792 19C15.6918 19 15.8223 18.9937 15.8571 18.9916C16.1144 18.9772 16.3574 18.8681 16.5392 18.6853L18.497 16.4C18.6754 16.1922 18.7658 15.9229 18.7488 15.6496C18.7319 15.3762 18.6091 15.1201 18.4065 14.9358L14.1286 11.0453Z" fill="#226ED8"/>
</svg>
